<?xml version="1.0" encoding="utf-8"?>
<!-- Generator: Adobe Illustrator 16.0.0, SVG Export Plug-In . SVG Version: 6.00 Build 0)  -->
<!DOCTYPE svg PUBLIC "-//W3C//DTD SVG 1.1//EN" "http://www.w3.org/Graphics/SVG/1.1/DTD/svg11.dtd">
<svg version="1.1" id="Layer_1" xmlns="http://www.w3.org/2000/svg" xmlns:xlink="http://www.w3.org/1999/xlink" x="0px" y="0px"
	 width="415.018px" height="131.271px" viewBox="0 0 415.018 131.271" enable-background="new 0 0 415.018 131.271"
	 xml:space="preserve">
<g>
	<g>
		<path fill="#A50034" d="M3.741,43.989h123.512C118.262,18.366,94.017,0,65.503,0C36.978,0,12.73,18.366,3.741,43.989z"/>
		<path fill="#FF1339" d="M0,65.496C0,73.254,1.357,80.694,3.835,87.6h123.322c2.478-6.906,3.834-14.35,3.834-22.104
			c0-7.654-1.325-14.995-3.738-21.824H3.741C1.327,50.501,0,57.842,0,65.496z"/>
		<path fill="#009AE0" d="M65.503,130.99c28.409,0,52.586-18.101,61.654-43.39H3.835C12.908,112.889,37.085,130.99,65.503,130.99z"
			/>
	</g>
	<path opacity="0.2" enable-background="new    " d="M71.017,130.591c0.03,0.052,0.063,0.096,0.091,0.146
		c32.143-2.729,57.653-28.665,59.73-60.984c-0.277-0.274-0.547-0.579-0.838-0.838c-0.618-0.662-1.229-1.299-1.877-1.88
		c-0.627-0.671-1.247-1.315-1.905-1.903c-0.619-0.663-1.231-1.302-1.883-1.883c-0.625-0.671-1.245-1.314-1.903-1.906
		c-0.62-0.659-1.229-1.301-1.88-1.88c-0.625-0.669-1.245-1.313-1.904-1.898c-0.62-0.667-1.235-1.311-1.891-1.894
		c-0.624-0.667-1.239-1.311-1.896-1.895c-0.619-0.667-1.233-1.309-1.886-1.892c-0.623-0.667-1.241-1.308-1.895-1.891
		c-0.62-0.665-1.235-1.306-1.888-1.887c-0.626-0.671-1.242-1.317-1.9-1.903c-0.625-0.667-1.241-1.311-1.898-1.896
		c-0.618-0.665-1.229-1.307-1.882-1.885c-0.623-0.667-1.239-1.311-1.893-1.895c-0.624-0.667-1.245-1.313-1.897-1.898
		c-0.621-0.662-1.237-1.306-1.889-1.887c-0.625-0.669-1.246-1.314-1.902-1.903c-0.62-0.663-1.23-1.304-1.887-1.885
		c-0.625-0.669-1.245-1.313-1.898-1.898c-0.616-0.66-1.227-1.294-1.873-1.872c-0.627-0.675-1.253-1.323-1.91-1.91
		c-0.625-0.67-1.24-1.313-1.896-1.896c-1.796-1.925-3.503-3.689-6.388-4.206c-3.013-0.531-9.604,1.773-12.428,3.023
		c-2.218,0.979-6.275,3.874-5.35,6.915c0.308,0.994,0.961,1.416,1.847,1.467c0.021,0.14,0.004,0.28,0.046,0.425
		c0.155,0.504,0.428,0.823,0.747,1.063c-1.458,0.212-2.74,1.542-4.054,2.531c-0.394-0.444-0.825-0.839-1.292-1.145
		c-0.532-0.739-1.171-1.415-1.889-1.889c-0.534-0.744-1.177-1.422-1.898-1.896c-0.532-0.738-1.171-1.418-1.89-1.891
		c-0.531-0.741-1.175-1.421-1.896-1.896c-1.065-1.483-2.568-2.799-4.248-2.483c-2.163,0.404-3.805,2.995-4.797,4.74
		c-2.526,4.382-3.528,11.055-2.2,15.987c1.053,3.847,3.072,6.683,3.398,10.6c0.3,3.493,1.284,5.406,3.121,6.458
		c0.479,0.822,1.106,1.443,1.894,1.894c0.481,0.821,0.932,1.563,1.712,2.012c0.48,0.825,1.287,1.325,2.071,1.774
		c0.482,0.824,1.11,1.441,1.896,1.889c0.479,0.826,1.104,1.446,1.893,1.896c0.082,0.141,0.15,0.304,0.241,0.432
		c-3.13,0.963-6.706,1.317-8.563,1.675c-6.854,1.322-14.365-0.069-20.297,4.443c-2.409,1.843-2.036,6.195-0.3,8.438
		c0.564,0.73,1.062,1.132,1.523,1.31"/>
	<path opacity="0.2" enable-background="new    " d="M67.227,126.801c0.118,0.2,0.23,0.411,0.369,0.591"/>
	<path opacity="0.2" enable-background="new    " d="M63.81,123.602"/>
	<path opacity="0.2" enable-background="new    " d="M61.915,121.712"/>
	<path opacity="0.2" enable-background="new    " d="M59.657,119.231"/>
	<path opacity="0.2" enable-background="new    " d="M46.774,106.566"/>
	<path fill="#FFFFFF" d="M88.584,27.546c-2.807-2.6-4.541-5.666-8.505-6.372c-3.013-0.531-9.604,1.773-12.428,3.023
		c-2.218,0.979-6.275,3.874-5.35,6.915c1.646,5.344,13.308-5.711,17.325-3.794c2.421,1.146,2.399,4.683,2.003,6.856
		c-0.76,4.312-2.434,8.88-5.189,12.313c-1.428,1.777-3.578,2.435-4.984,3.946c-1.323,1.423-0.98,3.267-3.017,4.212
		c-2.609,1.212-10.689,0.005-8.087-4.474c1.729-2.967,6.14-4.201,8.325-6.979c2.537-3.18,1.796-5.975-1.369-8.412
		c-2.98-2.309-5.099,1.262-7.475,2.501c-4.926,2.547-5.272-4.126-6.558-7.188c-0.812-1.945-2.967-5.17-5.502-4.697
		c-2.161,0.404-3.805,2.995-4.797,4.74c-2.526,4.382-3.528,11.055-2.199,15.987c1.052,3.847,3.071,6.683,3.397,10.6
		c0.509,5.938,2.921,7.386,8.341,7.612c2.701,0.116,10.552-0.889,10.365,3.491c-0.227,5.512-10.743,6.214-14.442,6.923
		c-6.854,1.322-14.365-0.069-20.297,4.443c-2.409,1.843-2.036,6.195-0.3,8.438c2.309,2.994,3.491,0.583,5.91-1.104
		c3.104-2.155,7.646-1.806,11.123-3.135c4.222-1.624,8.411-1.854,12.896-2.521c1.61-0.236,4.229-1.357,5.817-0.615
		c4.313,2.036,2.65,13.898,2.15,17.475c-0.437,3.102-1.883,6.166-1.036,9.341c0.832,3.167,3.614,6.861,6.832,3.625
		c2.769-2.82,3.61-8.471,3.725-12.295c0.182-5.563-0.91-11.132-0.569-16.704c0.084-1.297,0.254-2.93,1.329-3.844
		c0.737-0.628,1.787-0.897,2.639-1.376c2.896-1.631,13.063-0.954,14.996-3.825c1.229-1.826,0.519-4.366-1.361-5.444
		c-2.197-1.258-4.949-1.124-7.349-0.559c-1.542,0.354-9.075,4.367-10.295,2.705c-1.441-1.969-1.733-6.765,0.529-8.146
		c2.521-1.563,6.528,0.429,8.896-2.254c1.451-1.661,0.97-4.366,1.496-6.367c1.759-6.722,7.428-10.976,6.327-18.706
		C91.541,31.392,90.431,29.262,88.584,27.546"/>
</g>
<polygon fill="#666666" points="151.856,76.171 168.823,56.097 152.917,56.097 152.917,46.907 182.815,46.907 182.815,54.823 
	165.925,74.893 183.45,74.893 183.45,84.084 151.856,84.084 "/>
<path fill="#666666" d="M199.563,84.79c-1.84,0-3.559-0.308-5.157-0.918c-1.604-0.613-2.98-1.449-4.136-2.511
	c-1.157-1.056-2.063-2.319-2.723-3.78c-0.66-1.458-0.986-3.039-0.986-4.729c0-1.887,0.399-3.604,1.198-5.162
	c0.8-1.556,1.909-2.898,3.322-4.03c1.416-1.127,3.099-2,5.053-2.612c1.957-0.61,4.114-0.92,6.471-0.92
	c3.016,0,5.518,0.473,7.49,1.413v-1.13c0-1.74-0.507-3.038-1.519-3.887c-1.018-0.851-2.649-1.271-4.915-1.271
	c-2.118,0-4.076,0.336-5.865,1.021c-1.791,0.685-3.674,1.687-5.654,3.002l-3.886-8.337c4.901-3.156,10.481-4.737,16.749-4.737
	c5.938,0,10.509,1.32,13.713,3.959c3.205,2.639,4.807,6.597,4.807,11.875v7.21c0,1.271,0.232,2.153,0.706,2.648
	c0.472,0.494,1.318,0.79,2.547,0.884v11.307c-1.229,0.237-2.384,0.413-3.464,0.53c-1.084,0.117-2.051,0.176-2.897,0.176
	c-2.4,0-4.229-0.436-5.479-1.303c-1.249-0.875-2.063-2.159-2.438-3.855l-0.281-1.342c-1.65,2.121-3.557,3.732-5.728,4.837
	C204.321,84.239,202.013,84.79,199.563,84.79 M203.591,75.179c0.801,0,1.63-0.132,2.475-0.392c0.851-0.26,1.604-0.6,2.266-1.023
	c0.519-0.374,0.941-0.788,1.271-1.234c0.331-0.447,0.495-0.906,0.495-1.382v-2.754c-0.801-0.282-1.674-0.521-2.617-0.707
	c-0.941-0.19-1.788-0.282-2.545-0.282c-1.647,0-3.013,0.396-4.097,1.203c-1.087,0.801-1.627,1.813-1.627,3.037
	c0,1.038,0.416,1.882,1.235,2.546C201.275,74.852,202.321,75.179,203.591,75.179"/>
<path fill="#666666" d="M249.603,84.79c-3.348,0-6.281-0.529-8.8-1.59c-2.521-1.061-4.642-2.474-6.365-4.239
	c-1.714-1.768-3.014-3.813-3.882-6.146c-0.874-2.332-1.313-4.771-1.313-7.314c0-2.546,0.438-4.981,1.313-7.313
	c0.868-2.334,2.167-4.384,3.882-6.15c1.726-1.767,3.843-3.181,6.365-4.241c2.519-1.063,5.452-1.589,8.8-1.589
	c3.296,0,6.219,0.526,8.766,1.589c2.542,1.063,4.676,2.477,6.396,4.241c1.72,1.77,3.013,3.816,3.886,6.15
	c0.87,2.331,1.31,4.769,1.31,7.313s-0.438,4.982-1.31,7.314c-0.873,2.333-2.166,4.381-3.886,6.146
	c-1.723,1.769-3.854,3.182-6.396,4.239C255.822,84.26,252.899,84.79,249.603,84.79 M243.028,65.498c0,2.495,0.614,4.453,1.842,5.866
	c1.228,1.411,2.806,2.121,4.733,2.121c1.938,0,3.516-0.71,4.737-2.121c1.221-1.413,1.833-3.371,1.833-5.866
	c0-2.498-0.612-4.455-1.833-5.871c-1.224-1.413-2.802-2.119-4.737-2.119c-1.931,0-3.509,0.706-4.733,2.119
	C243.642,61.043,243.028,63,243.028,65.498"/>
<path fill="#8C8C8C" d="M293.921,84.79c-2.926,0-5.631-0.749-8.128-2.262c-2.499-1.508-4.454-3.439-5.869-5.795v7.351h-3.179V32.49
	h3.537v22.827c1.739-2.543,3.788-4.616,6.146-6.216c2.355-1.603,5.086-2.405,8.198-2.405c2.59,0,4.935,0.555,7.032,1.66
	c2.094,1.108,3.86,2.569,5.299,4.383c1.436,1.819,2.544,3.867,3.32,6.152c0.777,2.28,1.167,4.604,1.167,6.958
	c0,2.546-0.449,4.959-1.344,7.241c-0.896,2.285-2.133,4.29-3.71,6.011c-1.579,1.722-3.438,3.101-5.584,4.131
	C298.668,84.272,296.366,84.79,293.921,84.79 M293.212,81.611c2.123,0,4.075-0.449,5.87-1.339c1.788-0.896,3.329-2.089,4.624-3.572
	c1.298-1.488,2.309-3.17,3.045-5.053c0.728-1.892,1.093-3.818,1.093-5.799c0-2.074-0.348-4.063-1.023-5.973
	c-0.684-1.911-1.637-3.604-2.861-5.091c-1.227-1.484-2.7-2.672-4.416-3.568c-1.725-0.896-3.618-1.346-5.692-1.346
	c-1.552,0-3.021,0.274-4.416,0.815c-1.393,0.542-2.661,1.261-3.813,2.152c-1.159,0.896-2.183,1.934-3.077,3.108
	c-0.897,1.182-1.65,2.407-2.258,3.675v12.159c0.138,1.368,0.644,2.65,1.515,3.854c0.871,1.2,1.945,2.236,3.219,3.111
	c1.271,0.869,2.642,1.563,4.101,2.079C290.573,81.35,291.943,81.611,293.212,81.611"/>
<path fill="#8C8C8C" d="M329.048,84.794c-1.697,0-3.285-0.297-4.771-0.884c-1.482-0.592-2.781-1.392-3.893-2.401
	c-1.104-1.017-1.968-2.221-2.579-3.604c-0.614-1.392-0.913-2.889-0.913-4.493c0-1.604,0.374-3.061,1.129-4.381
	c0.753-1.319,1.813-2.462,3.181-3.429c1.365-0.964,2.979-1.722,4.845-2.266c1.856-0.54,3.921-0.812,6.181-0.812
	c1.979,0,3.979,0.178,6.009,0.532c2.027,0.353,3.839,0.835,5.443,1.444V60.9c0-3.483-0.99-6.255-2.969-8.302
	c-1.979-2.052-4.665-3.075-8.06-3.075c-1.84,0-3.76,0.376-5.763,1.132c-2.003,0.755-4.02,1.837-6.04,3.251l-1.413-2.402
	c4.754-3.208,9.233-4.807,13.424-4.807c4.43,0,7.929,1.284,10.495,3.852c2.574,2.568,3.855,6.112,3.855,10.641V79.14
	c0,1.178,0.492,1.768,1.482,1.768v3.179c-0.237,0.045-0.459,0.067-0.676,0.067h-0.598c-0.853,0-1.626-0.286-2.331-0.877
	c-0.708-0.592-1.063-1.354-1.063-2.302V77.94c-1.696,2.212-3.854,3.908-6.471,5.088C334.948,84.202,332.107,84.794,329.048,84.794
	 M329.754,81.966c2.729,0,5.251-0.509,7.563-1.521c2.307-1.012,4.027-2.391,5.157-4.138c0.802-0.938,1.203-1.883,1.203-2.819v-6.503
	C340.094,65.662,336.423,65,332.652,65c-3.676,0-6.644,0.756-8.907,2.267c-2.26,1.508-3.391,3.485-3.391,5.935
	c0,1.229,0.235,2.381,0.705,3.47c0.47,1.08,1.132,2.013,1.977,2.784c0.852,0.777,1.854,1.394,3.012,1.839
	C327.197,81.739,328.433,81.966,329.754,81.966"/>
<path fill="#8C8C8C" d="M373.504,84.79c-2.594,0-4.981-0.506-7.181-1.519c-2.188-1.013-4.085-2.392-5.686-4.134
	c-1.607-1.743-2.854-3.771-3.747-6.078c-0.896-2.312-1.344-4.737-1.344-7.281c0-2.591,0.458-5.042,1.381-7.348
	c0.917-2.313,2.188-4.334,3.813-6.079c1.63-1.744,3.523-3.124,5.695-4.139c2.161-1.015,4.519-1.518,7.065-1.518
	c2.544,0,4.907,0.503,7.104,1.518c2.191,1.015,4.096,2.395,5.727,4.139c1.621,1.745,2.896,3.77,3.814,6.079
	c0.918,2.307,1.379,4.757,1.379,7.348c0,2.543-0.461,4.972-1.379,7.281c-0.92,2.309-2.181,4.335-3.782,6.078
	c-1.601,1.742-3.512,3.121-5.726,4.134C378.427,84.284,376.048,84.79,373.504,84.79 M359.154,65.919
	c0,2.172,0.377,4.209,1.131,6.117c0.752,1.906,1.782,3.569,3.076,4.983c1.293,1.414,2.816,2.53,4.556,3.354
	c1.742,0.826,3.604,1.237,5.59,1.237c1.979,0,3.836-0.411,5.581-1.237c1.739-0.821,3.263-1.968,4.558-3.429
	c1.299-1.458,2.335-3.146,3.114-5.05c0.771-1.912,1.167-3.973,1.167-6.188c0-2.168-0.396-4.206-1.167-6.116
	c-0.779-1.906-1.815-3.578-3.114-5.017c-1.295-1.437-2.815-2.578-4.558-3.429c-1.745-0.852-3.604-1.271-5.581-1.271
	c-1.938,0-3.771,0.42-5.521,1.271c-1.742,0.851-3.269,2.002-4.59,3.461c-1.32,1.464-2.358,3.169-3.11,5.127
	C359.531,61.691,359.154,63.753,359.154,65.919"/>
<path fill="#A50034" d="M212.029,119.115h-9.123v5.14h-1.632v-5.14h-8.889v-1.546h8.889v-3.223h-6.622v-8.974h14.941v8.974h-6.688
	v3.223h9.123L212.029,119.115L212.029,119.115z M196.242,109.161h11.72v-2.332h-11.72V109.161z M196.242,112.884h11.72v-2.352
	h-11.72V112.884z"/>
<path fill="#009AE0" d="M238.022,120.075v1.654h-1.44v-15.787h5.706v14.135L238.022,120.075L238.022,120.075z M238.022,112.169h2.83
	v-4.77h-2.83V112.169z M240.849,113.629h-2.831v4.965h2.831V113.629z M253.544,122.535c0.66,0,0.791-0.35,0.854-2.657
	c0.326,0.265,0.936,0.479,1.352,0.586c-0.152,2.748-0.567,3.424-2.07,3.424h-2.896c-1.741,0-2.196-0.438-2.196-2.004v-2.965
	c-1.053,2.305-2.856,4.144-6.079,5.364c-0.198-0.371-0.589-0.966-0.958-1.22c3.899-1.354,5.557-3.646,6.293-6.563h-4.052v-5.162
	l-0.304,0.287c-0.235-0.346-0.738-0.896-1.088-1.091c2.048-1.808,3.356-4.223,4.074-6.139l1.564,0.219
	c-0.194,0.523-0.413,1.022-0.653,1.542h4.599l0.277-0.063l1.204,0.437c-0.761,1.153-1.593,2.373-2.372,3.354h3.394v6.621h-4.4v5.385
	c0,0.563,0.153,0.65,0.893,0.65h2.569L253.544,122.535L253.544,122.535z M246.667,107.528c-0.458,0.783-0.979,1.591-1.585,2.35
	h4.158c0.587-0.649,1.21-1.501,1.785-2.35H246.667z M248.128,115.175c0.216-1.217,0.301-2.571,0.391-3.984h-3.266v3.984H248.128z
	 M252.958,111.187h-2.943c-0.058,1.413-0.171,2.722-0.387,3.983h3.33V111.187L252.958,111.187z"/>
<path fill="#58544F" d="M290.159,113.798v3.377h5.86v1.433h-5.86v3.559h8.428v1.476h-18.398v-1.476h8.32v-3.559h-5.599v-1.433h5.599
	v-3.377h-5.73v-1.414c-0.819,0.568-1.698,1.048-2.544,1.481c-0.241-0.436-0.725-0.954-1.137-1.326
	c3.945-1.811,7.906-4.987,10.087-8.41l1.438,0.656c-0.136,0.192-0.262,0.396-0.395,0.589c2.679,3.11,5.885,5.357,9.407,7.207
	c-0.405,0.353-0.89,0.895-1.129,1.377c-0.851-0.526-1.671-1.024-2.485-1.572v1.415L290.159,113.798L290.159,113.798z
	 M295.958,112.343c-2.398-1.613-4.575-3.444-6.622-5.794c-1.769,2.2-4.051,4.2-6.492,5.794H295.958z"/>
<path fill="#FF1339" d="M326.366,117.76c-0.503,1.511-1.395,3.073-2.25,4.102c-0.255-0.221-0.779-0.642-1.107-0.83
	c0.872-0.938,1.588-2.269,2.024-3.614L326.366,117.76z M329.02,116.612v5.53c0,0.76-0.133,1.13-0.626,1.376
	c-0.506,0.236-1.251,0.258-2.292,0.258c-0.065-0.394-0.257-0.958-0.479-1.37c0.743,0.024,1.411,0.024,1.66,0
	c0.213,0,0.258-0.069,0.258-0.284v-5.51h-4.34v-1.396h4.34v-2.284h-4.441v-1.369h6.016c0.414-1.009,0.906-2.464,1.172-3.47
	l1.479,0.336c-0.371,1.042-0.801,2.218-1.199,3.138h2.766v1.366h-4.312v2.285h4.054v1.396L329.02,116.612L329.02,116.612z
	 M332.988,107.979h-9.539v-1.348h4.263c-0.28-0.651-0.633-1.393-0.952-1.981l1.46-0.371c0.413,0.744,0.869,1.636,1.156,2.354h3.616
	v1.348L332.988,107.979L332.988,107.979z M326.164,108.135c0.44,0.94,0.831,2.224,0.913,3.056l-1.367,0.37
	c-0.085-0.833-0.436-2.139-0.849-3.118L326.164,108.135z M331,117.328c0.697,1.067,1.479,2.484,1.813,3.423l-1.136,0.646
	c-0.345-0.936-1.111-2.413-1.787-3.501L331,117.328z M342.829,113.166h-2.398v10.979h-1.565v-10.979h-3.288v0.699
	c0,3.114-0.281,7.357-2.269,10.172c-0.282-0.307-0.893-0.788-1.241-0.979c1.805-2.612,2.003-6.294,2.003-9.191v-7.427
	c2.422-0.391,5.21-1.046,6.772-1.695l1.287,1.195c-1.78,0.676-4.285,1.223-6.554,1.567v4.137h7.254L342.829,113.166L342.829,113.166
	z"/>
<path fill="#666666" d="M393.733,48.112c-1.105,0-2.188-0.181-3.24-0.546c-1.054-0.359-1.956-0.887-2.721-1.575l0.844-1.251
	c0.796,0.652,1.604,1.139,2.437,1.466c0.825,0.328,1.71,0.492,2.652,0.492c1.146,0,2.056-0.233,2.735-0.695
	c0.677-0.461,1.021-1.119,1.021-1.974c0-0.398-0.09-0.729-0.271-0.991c-0.179-0.264-0.447-0.493-0.8-0.695
	c-0.356-0.197-0.8-0.375-1.336-0.527c-0.535-0.156-1.156-0.313-1.868-0.479c-0.813-0.201-1.521-0.396-2.117-0.598
	c-0.6-0.198-1.094-0.424-1.483-0.679c-0.388-0.257-0.679-0.569-0.869-0.94c-0.188-0.372-0.285-0.838-0.285-1.401
	c0-0.708,0.141-1.335,0.423-1.876c0.271-0.544,0.662-0.995,1.142-1.352c0.48-0.354,1.043-0.62,1.688-0.799
	c0.643-0.183,1.326-0.274,2.055-0.274c1.089,0,2.078,0.18,2.966,0.53c0.89,0.355,1.604,0.823,2.151,1.403l-0.899,1.089
	c-0.528-0.545-1.167-0.951-1.92-1.229c-0.753-0.27-1.538-0.412-2.354-0.412c-0.492,0-0.945,0.058-1.359,0.154
	c-0.418,0.099-0.785,0.257-1.102,0.474c-0.318,0.222-0.568,0.499-0.748,0.832c-0.183,0.341-0.272,0.734-0.272,1.188
	c0,0.378,0.063,0.687,0.188,0.925c0.129,0.236,0.337,0.438,0.623,0.611c0.293,0.172,0.662,0.328,1.104,0.463
	c0.449,0.134,0.989,0.273,1.624,0.421c0.907,0.22,1.702,0.436,2.396,0.654c0.688,0.218,1.265,0.468,1.729,0.762
	c0.461,0.291,0.808,0.644,1.045,1.062c0.234,0.418,0.355,0.925,0.355,1.526c0,1.305-0.498,2.337-1.498,3.104
	C396.762,47.733,395.42,48.112,393.733,48.112"/>
<path fill="#666666" d="M407.969,48.031c-0.982,0-1.877-0.203-2.688-0.611c-0.804-0.41-1.501-0.946-2.09-1.62
	s-1.054-1.442-1.376-2.313c-0.326-0.868-0.486-1.769-0.486-2.695c0-0.977,0.157-1.917,0.476-2.813
	c0.316-0.899,0.769-1.685,1.346-2.354c0.579-0.674,1.279-1.208,2.084-1.604c0.81-0.398,1.703-0.603,2.683-0.603
	c1.219,0,2.271,0.305,3.152,0.912c0.895,0.612,1.655,1.378,2.291,2.302v-2.97h1.66v14.234c0,0.979-0.191,1.847-0.56,2.602
	c-0.369,0.752-0.873,1.381-1.5,1.891c-0.623,0.509-1.36,0.893-2.216,1.145c-0.854,0.252-1.751,0.382-2.693,0.382
	c-1.614,0-2.924-0.292-3.921-0.869c-0.997-0.584-1.811-1.358-2.421-2.344l1.144-0.896c0.559,0.907,1.307,1.575,2.233,2.003
	c0.925,0.426,1.906,0.637,2.965,0.637c0.688,0,1.349-0.093,1.973-0.285c0.627-0.192,1.171-0.47,1.634-0.843
	c0.462-0.373,0.826-0.845,1.104-1.413c0.271-0.575,0.407-1.24,0.407-2.004v-2.806c-0.564,0.909-1.313,1.622-2.25,2.152
	C409.981,47.771,409,48.031,407.969,48.031 M408.483,46.48c0.546,0,1.081-0.104,1.608-0.301c0.521-0.199,0.998-0.468,1.426-0.804
	c0.428-0.337,0.788-0.714,1.076-1.13c0.29-0.419,0.479-0.841,0.569-1.279v-4.381c-0.201-0.509-0.477-0.979-0.828-1.419
	c-0.354-0.43-0.747-0.803-1.187-1.108c-0.436-0.313-0.902-0.556-1.401-0.737c-0.497-0.18-1.009-0.272-1.509-0.272
	c-0.802,0-1.509,0.166-2.126,0.504c-0.616,0.339-1.146,0.775-1.579,1.322c-0.433,0.544-0.763,1.159-0.989,1.854
	c-0.229,0.687-0.343,1.385-0.343,2.093c0,0.759,0.139,1.488,0.408,2.176c0.27,0.689,0.647,1.292,1.114,1.813
	c0.475,0.517,1.027,0.925,1.675,1.221C407.048,46.328,407.74,46.48,408.483,46.48"/>
</svg>
